<svg xmlns="http://www.w3.org/2000/svg" width="800" height="600" fill="none" viewBox="0 0 800 600"
  style="--tblr-illustrations-primary: #066FD1; --tblr-illustrations-skin: #FFCB9D;">
  <style>
    :where(.theme-dark, [data-theme="dark"]) .tblr-illustrations-computer-fix-a {
      fill: black;
      opacity: 0.07;
    }

    :where(.theme-dark, [data-theme="dark"]) .tblr-illustrations-computer-fix-b {
      fill: #1D2535;
    }

    :where(.theme-dark, [data-theme="dark"]) .tblr-illustrations-computer-fix-c {
      fill: #232B41;
    }

    :where(.theme-dark, [data-theme="dark"]) .tblr-illustrations-computer-fix-d {
      fill: #454C5E;
    }

    @media (prefers-color-scheme: dark) {
      .tblr-illustrations-computer-fix-a {
        fill: black;
        opacity: 0.07;
      }

      .tblr-illustrations-computer-fix-b {
        fill: #1D2535;
      }

      .tblr-illustrations-computer-fix-c {
        fill: #232B41;
      }

      .tblr-illustrations-computer-fix-d {
        fill: #454C5E;
      }
    }
  </style>
  <path
    d="M122 299.992C122 347.033 171.741 381.152 193.71 419.128C216.386 458.31 221.835 518.207 261.016 540.868C299.009 562.837 353.072 538.264 400.113 538.264C447.154 538.264 501.217 562.837 539.194 540.868C578.375 518.207 583.824 458.31 606.5 419.128C628.469 381.152 678.21 347.033 678.21 299.992C678.21 252.951 628.469 218.848 606.5 180.872C583.824 141.69 578.375 81.7925 539.194 59.1321C501.217 37.1627 447.138 61.7356 400.113 61.7356C353.089 61.7356 299.009 37.1627 261.016 59.1321C221.835 81.7925 216.386 141.69 193.71 180.872C171.741 218.848 122 252.967 122 299.992Z"
    fill="#EEF2FD" opacity="0.4" class="tblr-illustrations-computer-fix-a" />
  <path
    d="M358.489 496.367C465.23 496.367 551.762 492.884 551.762 488.588C551.762 484.292 465.23 480.81 358.489 480.81C251.747 480.81 165.216 484.292 165.216 488.588C165.216 492.884 251.747 496.367 358.489 496.367Z"
    fill="#D6D8E2" opacity="0.5" class="tblr-illustrations-computer-fix-b" />
  <path d="M511.872 153.342C491.496 144.863 469.427 141.243 447.41 142.767L449.676 156.058L511.872 153.342Z"
    fill="#066FD1" style="fill: #066FD1; fill: var(--tblr-illustrations-primary, var(--tblr-primary, #066FD1));" />
  <path
    d="M519.137 296.022L579.966 326.992L601.727 293.065L614.054 273.78C620.482 263.719 629.948 249.271 641.873 231.432C640.099 228.106 637.942 224.999 635.444 222.175C629.866 215.992 622.842 211.288 615.002 208.482H614.857C610.614 206.875 606.275 205.429 602 203.918C594.767 201.328 587.689 198.323 580.802 194.918C575.515 192.347 569.809 189.293 563.751 185.661C560.376 193.954 557.017 202.247 553.674 210.539C547.245 226.611 540.763 242.639 534.228 258.625C529.213 271.107 524.183 283.573 519.137 296.022Z"
    fill="#DADBE0" />
  <path
    d="M580.802 194.918L589.32 210.282L590.396 210.539C598.642 212.223 607.197 211.509 615.05 208.482H614.905C610.662 206.875 606.323 205.429 602.048 203.918C594.799 201.329 587.705 198.324 580.802 194.918Z"
    fill="#FFCB9D" style="fill: #FFCB9D; fill: var(--tblr-illustrations-skin, #FFCB9D);" />
  <path
    d="M641.872 231.496C629.948 249.335 620.546 263.783 614.053 273.844C611.996 277.058 610.501 279.356 604.603 288.581L601.726 293.065L591.377 309.136L579.966 326.927L519.152 296.006C524.167 283.578 529.197 271.139 534.243 258.689L553.673 210.62C553.786 210.363 553.882 210.105 553.995 209.864C556.138 204.432 558.329 199.006 560.568 193.584C561.639 190.97 562.711 188.345 563.782 185.709C567.141 187.75 570.42 189.582 573.554 191.254C576.061 192.604 578.487 193.841 580.834 194.998C587.721 198.364 594.793 201.336 602.016 203.902C606.291 205.413 610.63 206.795 614.873 208.466H615.017C615.998 208.868 616.978 209.254 617.926 209.704C624.662 212.495 630.674 216.781 635.508 222.239C637.979 225.07 640.114 228.176 641.872 231.496Z"
    fill="#066FD1" style="fill: #066FD1; fill: var(--tblr-illustrations-primary, var(--tblr-primary, #066FD1));" />
  <path
    d="M611.691 204.561C602.145 209.382 594.414 209.736 588.87 208.964C588.548 208.964 588.243 208.884 587.938 208.82L579.388 195.963C586.281 195.957 593.132 197.041 599.686 199.177C603.857 200.567 607.878 202.371 611.691 204.561Z"
    fill="#FFCB9D" style="fill: #FFCB9D; fill: var(--tblr-illustrations-skin, #FFCB9D);" />
  <path
    d="M151.988 440.149L564.955 440.149C578.198 440.149 588.934 429.414 588.934 416.171V180.02C588.934 166.777 578.198 156.042 564.955 156.042L151.988 156.042C138.745 156.042 128.01 166.777 128.01 180.02L128.01 416.171C128.01 429.414 138.745 440.149 151.988 440.149Z"
    fill="white" class="tblr-illustrations-computer-fix-c" />
  <path
    d="M594.576 179.265C594.362 171.55 591.152 164.223 585.625 158.837C580.098 153.451 572.69 150.431 564.972 150.417H151.941C144.093 150.425 136.568 153.547 131.018 159.097C125.468 164.647 122.346 172.171 122.338 180.02V416.267C122.346 424.116 125.468 431.641 131.018 437.191C136.568 442.741 144.093 445.862 151.941 445.871H302.882V455.931C301.275 466.876 293.931 469.962 288.788 470.749H231.558C230.396 470.753 229.282 471.217 228.46 472.039C227.639 472.861 227.175 473.974 227.171 475.136V480.215C227.175 481.377 227.639 482.491 228.46 483.313C229.282 484.135 230.396 484.598 231.558 484.602H485.484C486.06 484.602 486.631 484.489 487.163 484.268C487.695 484.048 488.179 483.725 488.586 483.317C488.994 482.91 489.317 482.426 489.537 481.894C489.758 481.362 489.871 480.791 489.871 480.215V475.136C489.871 474.56 489.758 473.99 489.537 473.457C489.317 472.925 488.994 472.441 488.586 472.034C488.179 471.627 487.695 471.303 487.163 471.083C486.631 470.863 486.06 470.749 485.484 470.749H428.142C422.999 469.962 415.59 466.86 414.047 455.851V445.79H564.972C572.823 445.782 580.349 442.661 585.901 437.111C591.454 431.562 594.579 424.037 594.592 416.187V179.94C594.592 179.763 594.592 179.522 594.576 179.265ZM583.326 416.187C583.322 421.049 581.388 425.711 577.95 429.149C574.512 432.587 569.851 434.52 564.988 434.524H151.957C147.095 434.52 142.433 432.587 138.995 429.149C135.557 425.711 133.624 421.049 133.62 416.187V179.94C133.624 175.078 135.557 170.416 138.995 166.978C142.433 163.54 147.095 161.607 151.957 161.602H564.988C567.494 161.595 569.973 162.11 572.269 163.113C575.552 164.533 578.349 166.883 580.313 169.873C582.278 172.863 583.325 176.362 583.326 179.94V416.187Z"
    fill="#232B41" class="tblr-illustrations-computer-fix-d" />
  <path
    d="M173.765 207.325L434.859 207.325C436.031 207.325 436.98 206.375 436.98 205.204V198.438C436.98 197.266 436.031 196.316 434.859 196.316L173.765 196.316C172.594 196.316 171.644 197.266 171.644 198.438V205.204C171.644 206.375 172.594 207.325 173.765 207.325Z"
    fill="#066FD1" style="fill: #066FD1; fill: var(--tblr-illustrations-primary, var(--tblr-primary, #066FD1));" />
  <path
    d="M173.75 311.017H219.842C221.005 311.017 221.947 310.074 221.947 308.912V302.113C221.947 300.951 221.005 300.008 219.842 300.008H173.75C172.587 300.008 171.644 300.951 171.644 302.113V308.912C171.644 310.074 172.587 311.017 173.75 311.017Z"
    fill="#DADBE0" />
  <path
    d="M174.552 271.546H351.159C352.766 271.546 354.068 270.243 354.068 268.637V238.664C354.068 237.057 352.766 235.755 351.159 235.755L174.552 235.755C172.946 235.755 171.644 237.057 171.644 238.664V268.637C171.644 270.243 172.946 271.546 174.552 271.546Z"
    fill="#A7AAB3" />
  <path
    d="M374.206 334.336L366.106 324.276L345.374 340.942L325.976 316.819L309.149 330.367L328.547 354.49L307.815 371.156L315.899 381.232L336.631 364.55L356.029 388.673L372.872 375.125L353.474 351.002L374.206 334.336Z"
    fill="#066FD1" style="fill: #066FD1; fill: var(--tblr-illustrations-primary, var(--tblr-primary, #066FD1));" />
  <path
    d="M601.711 259.01C603.495 247.76 614.102 219.764 617.959 209.784C617.011 209.334 616.031 208.948 615.05 208.546H614.906C608.284 208.707 604.813 208.161 604.54 206.939C604.331 206.023 605.793 204.754 608.927 203.098C606.245 201.729 603.468 200.553 600.618 199.579C598.656 198.894 596.661 198.31 594.64 197.827L594.383 304.733C596.858 300.876 599.333 297.035 601.792 293.178L604.668 288.694C602.499 278.489 600.57 266.194 601.711 259.01ZM481.996 243.453C481.321 243.55 480.55 248.532 482.993 251.714C483.608 252.502 484.394 253.139 485.291 253.578C484.005 247.953 482.671 243.373 481.996 243.453ZM506.666 302.595C504.89 301.543 503.03 300.64 501.105 299.896C502.859 300.988 504.723 301.893 506.666 302.595ZM463.884 330.27L459.931 356.627L464.222 349.797C463.723 343.3 463.611 336.78 463.884 330.27ZM514.139 329.451C514.992 327.582 515.618 325.618 516.003 323.601C505.234 319.787 494.686 315.377 484.407 310.39C482.041 317.978 478.968 325.328 475.23 332.343L464.222 349.845C464.415 351.822 464.672 353.782 465.025 355.663C466.986 366.238 471.679 373.502 475.263 379.062C482.289 389.864 491.674 398.931 502.712 405.58C532.457 406.686 561.435 396 583.342 375.848V367.218L514.139 329.451Z"
    fill="black" opacity="0.1" />
  <path
    d="M514.556 310.631C512.745 307.293 510.004 304.551 506.665 302.74C504.722 302.037 502.859 301.132 501.105 300.04L500.815 299.896C500.815 299.896 500.928 299.896 501.105 300.04C503.03 300.785 504.89 301.688 506.665 302.74C507.389 302.933 507.983 302.949 508.272 302.644C509.751 301.197 502.31 294.688 500.655 283.824C500.237 280.98 499.257 274.519 502.953 268.541C507.581 261.051 516.308 259.621 517.98 259.364C511.165 257.121 504.099 255.734 496.942 255.234C492.121 254.896 488.103 255.057 485.275 253.626C486.432 258.641 487.557 264.458 488.135 268.508C489.99 282.59 488.712 296.908 484.391 310.438C494.669 315.425 505.217 319.836 515.987 323.649C516.917 319.268 516.416 314.705 514.556 310.631ZM594.575 153.824V214.445C591.211 214.291 587.884 213.669 584.691 212.596C572.075 208.289 563.092 197.168 563.092 184.134C563.092 171.101 572.075 160.027 584.691 155.672C587.884 154.6 591.211 153.978 594.575 153.824Z"
    fill="black" opacity="0.1" />
  <path
    d="M594.559 207.582L621.43 199.932L625.946 207.968L598.384 226.611C597.083 223.605 595.765 220.584 594.463 217.562C594.543 214.204 594.543 210.989 594.559 207.582Z"
    fill="#DADBE0" />
  <path
    d="M594.575 153.824V214.445C591.21 214.291 587.884 213.669 584.691 212.596L583.309 212.098V179.956C583.308 176.378 582.261 172.879 580.296 169.889C578.332 166.899 575.535 164.55 572.252 163.129C575.299 160.218 578.872 157.911 582.779 156.331C583.405 156.074 584.048 155.833 584.691 155.608C587.887 154.558 591.214 153.957 594.575 153.824Z"
    fill="black" opacity="0.3" />
  <path
    d="M622.234 111.524C623.198 116.603 624.468 124.06 625.786 133.285C626.043 135.31 626.3 137.078 626.397 137.688C627.497 147.849 627.318 158.107 625.866 168.224C625.545 170.233 625.207 172.145 624.741 174.025C623.472 179.232 611.097 187.718 596.247 192.716C591.131 194.464 585.847 195.676 580.481 196.332C563.783 198.341 552.806 186.963 552.726 177.047C552.669 174.626 553.347 172.245 554.671 170.217C556.981 166.083 558.517 161.563 559.203 156.877C560.349 150.668 561.047 144.384 561.292 138.074C561.517 134.474 561.501 132.128 561.501 132.128L574.358 114.626L612.848 105.787C613.877 112.36 616.593 116.458 618.714 116.394C620.836 116.33 621.961 112.376 622.234 111.524Z"
    fill="#FFCB9D" style="fill: #FFCB9D; fill: var(--tblr-illustrations-skin, #FFCB9D);" />
  <path
    d="M622.234 111.524C623.182 116.603 624.468 124.06 625.801 133.285C626.042 135.31 626.3 137.094 626.38 137.688C627.492 147.848 627.325 158.106 625.882 168.224C623.214 168.006 620.612 167.28 618.216 166.086C615.599 164.744 613.272 162.898 611.369 160.654C609.414 158.235 607.852 155.524 606.741 152.618C605.91 150.774 605.196 148.879 604.603 146.945C590.998 155.218 575.015 158.697 559.202 156.829C560.348 150.62 561.046 144.336 561.291 138.026C561.516 134.426 561.5 132.063 561.5 132.063L574.357 114.578L612.848 105.787C613.877 112.36 616.593 116.458 618.714 116.378C620.835 116.297 622.041 112.376 622.314 111.556"
    fill="black" opacity="0.1" />
  <path
    d="M628.919 118.66C630.575 126.686 629.128 135.042 624.869 142.044C623.921 143.271 623.061 144.566 622.298 145.917C620.423 149.78 619.539 154.05 619.727 158.34C617.475 156.587 615.797 154.204 614.905 151.494C613.668 147.331 613.716 139.103 613.555 137.994V137.319C613.555 136.949 613.459 136.451 613.33 135.487C612.996 133.423 612.529 131.383 611.932 129.38C611.923 129.274 611.884 129.174 611.819 129.09C603.446 137.222 579.05 158.019 557.177 148.054C553.768 146.519 550.6 144.494 547.776 142.044C547.504 141.854 547.26 141.627 547.052 141.369C546.365 140.756 545.715 140.101 545.108 139.408L544.931 139.231C543.365 137.429 542.106 135.382 541.202 133.172L540.527 132.24C540.216 131.248 539.985 130.232 539.836 129.203C539.479 125.135 540.541 121.069 542.842 117.696C547.004 111.09 554.252 106.092 558.077 103.489C572.895 93.1871 597.291 85.9871 614.712 97.5102C619.112 100.567 622.734 104.613 625.287 109.323C626.871 112.269 628.034 115.423 628.743 118.692"
    fill="#232B41" class="tblr-illustrations-computer-fix-d" />
  <path
    d="M611.61 129.026C603.237 137.158 578.841 157.954 556.968 147.99C553.558 146.454 550.391 144.429 547.566 141.979C547.295 141.79 547.051 141.562 546.843 141.304C546.155 140.691 545.506 140.036 544.898 139.344L544.722 139.167C543.159 137.362 541.9 135.316 540.993 133.108C546.31 136.352 552.126 138.698 558.205 140.051C588.307 146.608 613.185 124.188 617.155 120.605L617.46 120.331C615.75 123.389 613.816 126.317 611.675 129.09"
    fill="black" opacity="0.5" />
  <path
    d="M480.357 156.781C480.359 158.399 480.208 160.013 479.907 161.602H450.625C450.324 160.013 450.173 158.399 450.175 156.781C450.163 154.615 450.417 152.456 450.931 150.353H479.618C480.118 152.459 480.366 154.616 480.357 156.781Z"
    fill="black" opacity="0.3" />
  <path
    d="M460.67 147.074C462.099 148.576 463.306 150.276 464.254 152.12C467.773 158.645 467.291 165.717 462.502 169.638C456.395 174.572 445.772 172.515 438.7 165.026C437.929 164.196 437.215 163.316 436.563 162.39C431.533 155.302 431.484 146.833 436.884 142.478C442.927 137.528 453.614 139.585 460.67 147.074Z"
    fill="#FFCB9D" style="fill: #FFCB9D; fill: var(--tblr-illustrations-skin, #FFCB9D);" />
  <path
    d="M460.67 147.074C462.099 148.576 463.306 150.276 464.254 152.12C463.579 152.57 462.968 152.972 462.309 153.374C453.614 158.597 448.022 157.52 437.848 161.763C437.408 161.946 436.978 162.155 436.563 162.39C431.533 155.302 431.484 146.833 436.884 142.478C442.927 137.528 453.614 139.585 460.67 147.074Z"
    fill="black" opacity="0.1" />
  <path d="M594.591 342.918V366.238L583.341 375.88V346.807L594.35 341.616L594.591 342.918Z" fill="black"
    opacity="0.15" />
  <path
    d="M520.905 253.385C519.258 258.257 516.136 262.495 511.972 265.513C507.808 268.531 502.808 270.179 497.666 270.228L479.457 324.26L471.663 347.306L468.368 357.029C472.238 360.052 475.123 364.156 476.658 368.82C478.193 373.484 478.309 378.5 476.99 383.23C475.671 387.96 472.978 392.192 469.252 395.39C465.525 398.588 460.933 400.608 456.057 401.193L463.611 378.886C463.902 378.01 463.836 377.054 463.427 376.226C463.018 375.399 462.298 374.766 461.425 374.466L447.797 369.854C446.921 369.562 445.965 369.628 445.137 370.038C444.31 370.447 443.677 371.166 443.377 372.039L435.84 394.346C432.316 390.924 429.889 386.531 428.867 381.726C427.845 376.921 428.274 371.921 430.1 367.361C431.926 362.8 435.065 358.885 439.121 356.113C443.176 353.34 447.963 351.836 452.875 351.79L456.09 342.436L464.029 318.956L482.189 264.989C478.319 261.966 475.434 257.862 473.899 253.198C472.364 248.533 472.249 243.518 473.567 238.788C474.886 234.057 477.579 229.825 481.306 226.627C485.032 223.43 489.624 221.41 494.5 220.825L486.946 243.132C486.798 243.565 486.736 244.024 486.766 244.482C486.795 244.939 486.915 245.386 487.118 245.797C487.321 246.208 487.604 246.575 487.95 246.876C488.295 247.177 488.697 247.406 489.132 247.551L502.744 252.164C503.62 252.455 504.576 252.389 505.404 251.98C506.231 251.571 506.864 250.851 507.164 249.978L514.718 227.671C518.075 230.933 520.439 235.081 521.534 239.633C522.629 244.184 522.411 248.953 520.905 253.385Z"
    fill="#A7AAB3" />
  <path
    d="M479.456 324.26L471.662 347.306C468.777 346.907 465.932 346.257 463.16 345.361C460.724 344.56 458.35 343.582 456.057 342.436L463.996 318.956C466.421 319.359 468.811 319.944 471.148 320.708C474.023 321.626 476.805 322.815 479.456 324.26Z"
    fill="black" opacity="0.1" />
  <path
    d="M473.028 297.083C469.934 297.178 466.87 297.719 463.932 298.69C453.357 301.904 446.446 309.94 447.426 319.101C448.712 330.752 462.148 339.72 477.496 339.19C479.193 339.115 480.884 338.933 482.558 338.643C495.319 336.377 504.254 327.393 503.097 317.172C501.844 305.585 488.344 296.553 473.028 297.083Z"
    fill="#FFCB9D" style="fill: #FFCB9D; fill: var(--tblr-illustrations-skin, #FFCB9D);" />
  <path
    d="M473.028 297.083C469.934 297.178 466.871 297.719 463.932 298.69C464.189 299.879 464.414 300.94 464.703 302.049C468.448 316.722 475.503 321.447 481.819 336.618C482.106 337.278 482.353 337.954 482.558 338.643C495.319 336.377 504.254 327.393 503.097 317.172C501.844 305.585 488.344 296.553 473.028 297.083Z"
    fill="black" opacity="0.1" />
  <path
    d="M656.128 280.642C654.521 306.083 638.45 331.186 611.9 350.568C587.375 368.456 553.899 381.489 514.573 385.411C507.579 373.017 500.908 360.445 494.564 347.708C492.475 343.545 490.434 339.334 488.376 335.043C480.341 318.297 473.302 302.097 467.082 286.621C484.568 292.358 556.808 314.906 599.461 296.601C607.191 293.29 622.62 286.765 624.805 274.101C625.437 269.55 624.616 264.916 622.459 260.858C620.661 257.489 619.572 253.788 619.258 249.982C618.945 246.176 619.414 242.346 620.636 238.728C621.859 235.11 623.809 231.781 626.367 228.945C628.925 226.109 632.036 223.827 635.509 222.239C656.241 249.432 656.691 271.562 656.128 280.642Z"
    fill="#066FD1" style="fill: #066FD1; fill: var(--tblr-illustrations-primary, var(--tblr-primary, #066FD1));" />
  <path
    d="M611.9 350.568C587.375 368.456 553.898 381.489 514.572 385.411C511.152 379.352 507.809 373.249 504.544 367.106C499.947 358.459 495.613 349.958 491.542 341.6C505.078 349.573 519.888 355.151 535.32 358.09C561.048 362.777 587.575 360.171 611.9 350.568Z"
    fill="black" opacity="0.1" />
</svg>